<svg width="12" height="31" viewBox="0 0 12 31" fill="none" xmlns="http://www.w3.org/2000/svg">
<path d="M0 0.67532C1.17919 0.337737 2.65318 0.168945 4.27457 0.168945C6.63296 0.168945 8.69655 0.844111 10.0231 2.36323C11.2023 3.71356 11.9393 5.90785 11.9393 8.43972C11.9393 11.1404 11.3497 12.9971 10.3179 14.5162C8.99134 16.7105 6.48556 17.892 4.27457 17.892C3.83238 17.892 3.39018 17.892 2.94798 17.892V30.045H0V0.67532ZM2.94798 14.8538C3.24278 14.8538 3.68498 15.0226 4.12718 15.0226C7.07516 15.0226 8.99135 12.8283 8.99135 8.60851C8.99135 5.57027 7.95956 2.86961 4.56938 2.86961C3.83238 2.86961 3.24278 3.0384 2.94798 3.0384V14.8538Z" fill="black"/>
</svg>
