<svg width="317" height="50" viewBox="0 0 317 50" fill="none" xmlns="http://www.w3.org/2000/svg">
<path fill-rule="evenodd" clip-rule="evenodd" d="M86.7697 14.3549C86.3193 14.0544 85.2685 13.9041 84.3677 13.9041C84.2176 13.9041 84.0675 13.9041 83.9174 13.9041C82.5663 13.9041 81.6656 14.0544 80.3145 14.2046C80.3145 14.2046 75.6608 15.4069 75.2104 15.4069C74.4598 15.4069 73.7092 15.4069 72.8085 15.2566C72.6583 15.2566 72.5082 15.2566 72.3581 15.2566C71.6075 15.2566 66.5034 16.6091 66.5034 16.6091C65.6027 16.6091 63.6511 16.7594 62.3 17.3605C60.3485 18.1119 59.5979 18.1119 58.8472 18.1119H58.6971V17.9616L58.547 17.5108H58.6971C59.1475 17.3605 59.8981 16.6091 61.2492 16.3085C64.2516 15.5571 68.1547 14.0544 69.5058 13.303C70.4065 12.8521 71.3073 12.251 71.7576 11.6499V11.4996C71.7576 10.7482 71.1571 10.4477 69.806 10.2974C69.0554 10.2974 68.0046 10.4477 67.1039 10.7482L60.6487 12.1007L53.4429 13.6035L47.1378 15.2566L43.6851 15.8577V15.5571V15.2566V15.1063C43.6851 14.5052 43.0846 13.6035 42.4841 13.303C42.1839 13.1527 41.8836 13.1527 41.5834 13.1527C41.2831 13.1527 40.9829 13.1527 40.6827 13.303H40.3824V13.1527V13.0024C40.0822 12.5516 38.4309 11.3493 37.5301 10.4477L37.38 10.2974V10.1471C37.38 9.54599 37.5301 9.09516 37.5301 8.94488C37.5301 8.7946 37.5301 8.64432 37.0798 8.19349C36.7795 7.89293 36.3292 7.89293 36.0289 7.89293C35.7287 7.89293 35.5786 7.89293 35.2783 7.89293H35.1282L32.1258 3.83541L31.0749 3.23429L31.9757 2.4829C31.9757 2.33262 31.9757 2.33262 31.8256 2.18234C31.3752 2.03206 30.9248 1.88178 30.4745 1.88178C30.3243 1.88178 30.1742 1.88178 29.874 1.88178H29.5737V1.73151V1.58123C29.5737 1.43095 29.4236 1.13039 29.2735 0.980112C28.9733 0.829834 28.8231 0.829834 28.673 0.829834C28.3728 0.829834 28.2227 0.829834 28.0725 0.980112L27.0217 2.03206V2.93373L26.8716 3.98569L24.6198 6.08959L23.1186 7.14154L22.2178 8.19349L20.5665 10.1471L19.3655 11.3493L18.0145 12.5516L17.1137 13.303L16.5133 14.2046L13.0605 17.661L12.46 18.8633L9.30747 22.6202C9.30747 22.6202 6.75542 25.4755 6.30506 26.0766C6.30506 26.0766 4.20337 28.3308 4.20337 28.4811C4.05325 28.4811 3.45277 29.2325 3.00241 29.533C2.55205 29.6833 2.25181 29.8336 1.80145 29.9839C1.35109 29.9839 1.20096 30.1342 0.750603 30.8856C0.150121 31.1861 0 31.3364 0 31.4867C0 31.637 0.150121 31.9375 0.600482 32.3883C0.900723 32.6889 1.20096 32.9895 1.65133 32.9895C2.10169 32.9895 2.70217 32.6889 3.30265 31.4867C4.20338 31.0358 5.55446 29.3828 6.30506 28.3308C6.30506 28.3308 12.1598 22.1694 12.6101 21.418C12.9104 20.9672 14.7118 19.0135 15.0121 18.5627C16.213 17.3605 17.414 16.008 18.9152 14.6555C19.6658 14.0544 22.368 10.8985 22.368 10.8985L23.4188 9.99683L24.6198 8.64432L26.8716 6.39014H27.0217C27.4721 6.39014 27.9224 6.54042 28.2227 6.99126C28.2227 6.99126 28.3728 9.99683 28.5229 10.5979C28.5229 10.5979 27.6222 11.3493 27.4721 11.4996C27.4721 11.4996 27.4721 11.4996 27.6222 11.4996C27.7723 11.4996 28.0725 11.6499 28.3728 11.8002L28.5229 11.9505L28.673 15.2566L28.5229 15.4069C27.7723 16.3085 27.3219 16.9096 26.8716 17.5108C26.2711 18.1119 26.2711 17.9616 26.121 18.5627C26.121 18.713 26.121 19.0135 26.121 19.1638C26.121 19.6147 26.121 19.9152 26.4212 20.2158C26.5713 20.5163 27.1718 20.6666 27.6222 20.6666C27.7723 20.6666 27.9224 20.6666 28.0725 20.6666L28.5229 20.5163V25.6258L27.1718 26.828C27.1718 26.828 27.0217 27.1286 27.0217 27.5794C27.0217 27.88 27.1718 28.1805 27.1718 28.1805L28.2227 28.6314L28.3728 33.7409L27.7723 35.0934C27.4721 35.3939 27.4721 35.8448 27.4721 36.2956C27.4721 36.4459 27.4721 36.5961 27.4721 36.5961C27.9224 37.3475 27.7723 37.047 28.8231 37.1973H29.1234L29.4236 43.3587L28.5229 43.8095L25.9709 42.7576C24.1694 42.0062 23.2687 41.5553 22.0677 41.1045L18.4648 39.9023C18.0145 39.6017 17.5641 39.1509 16.9636 38.8503C16.0629 38.3995 14.7118 38.5498 13.9612 38.0989C12.46 37.1973 11.1089 36.8967 9.60771 36.5961C7.35591 36.1453 5.40434 35.5442 3.90313 34.342C3.45277 34.1917 2.85229 33.8911 2.40193 33.8911C1.80145 33.8911 1.20096 34.1917 1.05084 35.0934C1.05084 35.0934 1.05084 35.2436 1.05084 35.3939C1.05084 35.995 1.35109 36.7464 1.80145 37.047L6.30506 38.3995L10.8087 39.4514C14.5617 40.0526 17.8643 41.4051 21.167 43.0581L22.6682 43.9598C23.2687 44.2604 24.1694 44.2604 24.92 44.4106L26.5713 45.0117L27.7723 45.7631L27.4721 45.9134C26.8716 46.214 25.8207 47.1157 25.0701 47.867C24.7699 48.0173 24.6198 48.0173 24.4696 48.0173C24.4696 48.1676 24.4696 48.1676 24.4696 48.3179C24.4696 48.7687 24.6198 49.0693 25.0701 49.0693C25.0701 49.0693 25.3704 48.7687 25.6706 48.6184C26.121 48.0173 26.5713 47.867 27.0217 48.0173C27.3219 48.0173 27.6222 48.0173 27.7723 48.0173C27.9224 48.0173 27.9224 48.0173 28.0725 48.0173C28.673 48.0173 28.5229 47.4162 29.1234 47.2659L30.7747 46.6648C31.075 46.8151 31.5253 47.1157 31.5253 47.1157C31.5253 47.1157 31.8256 47.1157 32.1258 46.9654C32.426 46.5145 32.5762 45.7631 33.3268 45.6129C33.3268 45.6129 33.627 45.6129 33.7771 45.7631C34.2275 46.3643 34.2275 46.8151 34.5277 46.8151C34.6778 46.8151 34.828 46.8151 34.828 46.8151C35.4284 46.8151 35.5786 46.8151 36.0289 46.3643L37.5301 44.1101L40.0822 42.3067C40.9829 41.7056 42.1839 41.7056 43.0846 41.4051C43.8352 41.1045 44.7359 40.8039 45.6366 40.5034L53.1427 38.7L58.2468 37.1973L63.2007 36.5961C65.6027 35.6945 68.1547 34.9431 70.8569 34.6425C72.8085 34.342 74.6099 33.7409 76.2612 32.8392C77.0118 32.5386 77.162 32.2381 77.162 31.637C77.162 31.1861 77.0118 30.585 76.5615 30.1342C75.8109 28.7817 72.5082 28.6314 72.5082 28.6314L74.9101 27.88C75.8109 27.7297 76.5615 27.4292 77.4622 27.1286C79.5639 26.3772 82.1159 25.7761 82.7164 25.0247C82.8665 24.7241 83.0167 24.4236 83.0167 24.123C82.7164 21.8688 80.3145 21.7186 80.3145 21.7186L84.2176 20.5163C84.8181 20.3661 85.5687 19.9152 86.1692 19.3141C86.4694 19.0135 86.6196 18.713 86.6196 18.2622C86.6196 18.1119 86.6195 17.8113 86.3193 17.3605C86.1692 16.9096 85.1183 16.7594 85.1183 16.7594C86.6195 16.6091 87.8205 15.8577 87.8205 14.8057V14.6555C87.22 14.8057 87.22 14.6555 86.7697 14.3549ZM58.9974 19.9152C59.2976 19.7649 59.5979 19.7649 60.0482 19.6147C60.7988 19.3141 61.6995 19.1638 62.1499 19.0135C64.2516 18.5627 69.5058 17.9616 72.0579 17.661C72.9586 17.5108 72.9586 17.8113 72.9586 17.8113L60.0482 21.418L55.5446 22.6202L52.5422 23.8225L51.3412 23.9727L49.9901 22.3197L49.5398 21.8688L54.9441 20.6666C54.9441 20.6666 54.9441 20.6666 55.0942 20.6666C55.2444 20.6666 55.2444 20.6666 55.5446 20.5163C55.8448 20.5163 56.2952 20.3661 56.7456 20.2158C57.6463 20.0655 58.547 19.9152 58.8472 19.7649C58.8472 19.7649 58.8473 19.7649 58.9974 19.7649C58.6971 19.9152 58.8473 19.9152 58.9974 19.9152ZM60.7988 12.8521C60.7988 12.8521 62.4501 12.4013 63.0506 12.5516C63.3509 12.5516 63.0506 13.0024 63.0506 13.0024C62.1499 14.0544 54.0434 17.0599 53.4429 17.3605C52.2419 17.8113 46.6875 19.4644 46.6875 19.4644L44.7359 16.9096C44.5858 16.7594 55.3945 14.3549 60.7988 12.8521ZM44.1354 24.8744C44.7359 24.4236 45.4865 23.0711 46.3872 23.0711C46.5374 23.0711 46.8376 23.0711 46.9877 23.2214L48.1887 24.2733L50.5906 26.3772L50.1403 26.828L49.5398 26.9783L47.8884 25.9264C46.8376 26.2269 44.886 26.6778 44.1354 26.9783C43.2347 27.4292 41.8836 27.88 41.8836 27.88H41.7335H40.9829L41.133 27.5794L41.2831 27.2789C41.4333 27.2789 43.6851 25.3253 44.1354 24.8744ZM41.7335 18.5627L42.0337 18.2622L43.535 19.9152L40.9829 20.6666L39.6318 20.8169V20.6666L39.4817 20.2158L39.6318 20.0655C40.2323 19.6147 41.2831 19.1638 41.7335 18.5627ZM36.179 12.1007L36.4793 11.8002L36.6294 11.9505L36.7795 12.1007C37.5301 12.8521 38.581 13.7538 39.0313 14.3549C39.0313 14.3549 34.5277 16.3085 33.3268 16.9096C32.8764 17.2102 32.426 17.2102 32.1258 17.2102C31.9757 17.2102 31.8256 17.2102 31.8256 17.2102H31.5253L31.0749 16.7594C31.0749 16.9096 35.1282 13.303 36.179 12.1007ZM30.4745 9.99683L30.3243 6.39014L30.6246 6.08959L33.1766 7.89293V8.04321V8.19349L33.0265 8.94488L30.4745 9.99683ZM30.4745 14.3549V11.4996L32.8764 10.5979L34.2275 10.1471V10.2974V10.4477L34.3776 11.1991L31.8256 12.7018L31.2251 13.303L30.9248 13.6035L30.4745 14.3549ZM31.0749 19.9152L31.3752 19.7649C32.5762 19.4644 33.0265 18.8633 34.5277 18.2622C35.5786 17.9616 37.9805 16.4588 39.7819 16.1583L40.3824 16.008L40.2323 16.3085L40.0822 16.6091C39.7819 17.5108 38.581 17.9616 38.1306 18.4124C35.8788 20.3661 33.627 22.0191 31.5253 23.6722L30.9248 24.123L31.0749 19.9152ZM30.9248 28.4811V28.1805L31.2251 28.0303C31.9757 27.7297 32.7263 26.9783 33.627 26.3772C34.9781 25.4755 36.6294 24.5739 38.4309 23.5219L39.9321 23.0711C39.9321 23.0711 41.133 22.7705 41.4333 23.0711C41.7335 23.3716 41.2831 23.6722 41.2831 23.6722L40.6827 24.2733L38.8812 25.7761L31.2251 32.0878L30.9248 32.3883V28.4811ZM36.4793 38.3995C35.8788 38.8503 35.2783 39.4514 34.6778 40.0526C33.7771 41.1045 32.426 42.0062 31.5253 42.0062H31.0749V36.5961V36.2956L33.1766 35.2436C36.0289 33.29 37.2299 32.5386 40.9829 30.4347L43.535 29.3828C43.6851 29.3828 43.9853 29.3828 44.2856 29.2325C44.5858 29.2325 44.7359 29.2325 45.0362 29.3828C45.0362 29.3828 45.0362 29.3828 45.1863 29.3828C45.3364 29.3828 45.3364 29.5331 45.3364 29.6833C45.3364 29.8336 45.3364 29.8336 45.1863 29.9839C42.334 32.9895 39.6318 35.6945 36.4793 38.3995ZM61.3993 34.342L59.5979 34.9431H57.9465L50.5906 36.7464L47.1378 37.6481L43.2347 39.0006V38.8503L42.9345 38.3995L43.0846 38.2492C44.4357 37.4978 45.3364 36.5961 46.9877 35.995C47.4381 35.995 49.0894 35.6945 49.6899 35.5442C51.1911 35.2436 52.6923 34.6425 54.3436 34.1917C55.8448 33.8911 57.0458 33.5906 58.6971 33.29C60.1983 33.1397 65.7528 32.2381 68.1547 31.9375C68.9053 31.7872 69.0554 32.0878 69.0554 32.0878L61.3993 34.342ZM59.5979 29.9839C58.3969 30.2844 56.2952 30.8856 56.1451 30.8856L53.2928 31.7872C51.9417 32.2381 50.7407 32.5386 49.6899 32.5386C49.5398 32.5386 49.2395 32.5386 49.0894 32.5386L48.3388 32.3883L48.6391 32.0878L48.9393 31.7872C50.1403 30.585 51.6415 30.2844 54.3436 29.9839L56.1451 29.3828L63.501 27.5794C63.9514 27.2789 69.9562 25.6258 72.5082 25.0247C73.4089 24.8744 73.4089 25.0247 73.4089 25.0247C73.4089 25.0247 63.0506 29.0822 59.5979 29.9839ZM73.1087 22.0191C72.5082 22.1694 72.0579 22.3197 72.0579 22.3197L70.1063 23.0711L65.1523 23.9727C64.5518 24.2733 63.9513 24.7241 63.0506 24.8744L58.3969 25.7761V25.6258L58.2468 25.175L59.748 24.123C61.3993 23.6722 63.0506 23.3716 64.702 22.7705L67.7044 21.7186L70.2564 21.418L71.6075 20.9672L74.0094 20.5163L74.4598 19.9152C74.9101 19.6147 75.5106 19.6147 75.961 19.6147C76.4114 19.6147 78.3629 19.0135 78.6632 19.1638C78.8133 19.1638 80.3145 18.8633 80.3145 19.1638C80.0142 20.0655 73.1087 22.0191 73.1087 22.0191Z" fill="black"/>
</svg>
