<svg width="13" height="31" viewBox="0 0 13 31" fill="none" xmlns="http://www.w3.org/2000/svg">
<path d="M0.468545 1.85671C1.64773 0.843958 3.41652 0 5.7749 0C9.90206 0 12.113 3.03825 12.113 7.08925C12.113 10.2963 10.1968 13.1657 7.54368 14.1785V14.3473C10.7864 15.0225 12.85 17.8919 12.85 21.9429C12.85 27.1755 9.60726 30.3825 5.03791 30.3825C3.26912 30.3825 1.35295 29.8761 0.0263672 28.8634L0.76336 25.9939C1.79515 26.6691 3.12172 27.3443 4.8905 27.3443C8.13327 27.3443 9.90206 24.9812 9.90206 21.7741C9.90206 17.8919 7.39629 15.6976 4.00612 15.6976H3.26913V12.997H3.85871C6.51189 12.997 9.16507 10.6339 9.16507 7.42683C9.16507 4.55738 7.69109 2.70067 5.18531 2.70067C3.85873 2.70067 2.38473 3.37583 1.35294 4.21979L0.468545 1.85671Z" fill="black"/>
</svg>
