<svg width="13" height="31" viewBox="0 0 13 31" fill="none" xmlns="http://www.w3.org/2000/svg">
<path d="M0.410156 0.676538C1.58935 0.338957 2.91593 0.170166 4.68472 0.170166C7.0431 0.170166 9.10668 0.845329 10.4333 2.36445C11.6125 3.71477 12.3495 5.90905 12.3495 8.44091C12.3495 11.1416 11.7599 12.9983 10.7281 14.5174C9.40149 16.7117 6.8957 17.8932 4.68472 17.8932C4.24252 17.8932 3.80033 17.8932 3.35814 17.8932V30.0461H0.410156V0.676538ZM3.21073 14.855C3.50553 14.855 3.94773 15.0237 4.38992 15.0237C7.3379 15.0237 9.25409 12.8295 9.25409 8.6097C9.25409 5.57147 8.2223 2.87082 4.83213 2.87082C4.09513 2.87082 3.50553 3.03961 3.21073 3.03961V14.855Z" fill="black"/>
</svg>
