<svg width="13" height="31" viewBox="0 0 13 31" fill="none" xmlns="http://www.w3.org/2000/svg">
<path d="M0.470703 0.676541C1.6499 0.338958 3.12388 0.170166 4.74527 0.170166C7.10365 0.170166 9.01983 0.676541 10.4938 2.19567C11.673 3.37721 12.1152 5.06512 12.1152 7.25942C12.1152 10.2977 10.6412 12.6608 8.13545 13.8423V14.0111C11.0834 14.855 12.9996 17.7245 12.9996 21.6067C12.9996 24.1386 12.2626 25.9953 11.2308 27.5144C9.75683 29.3711 7.39846 30.2151 4.45047 30.2151C2.53429 30.2151 1.35508 30.0463 0.618089 29.8775V0.676541H0.470703ZM3.27128 12.8295H4.59786C6.95625 12.8295 9.01983 10.804 9.01983 7.597C9.01983 4.89633 7.84065 2.70204 4.74527 2.70204C4.00827 2.70204 3.56607 2.87083 3.12387 2.87083V12.8295H3.27128ZM3.27128 27.1768C3.56608 27.3456 4.15567 27.3456 4.74527 27.3456C7.84065 27.3456 9.75683 25.3201 9.75683 21.4379C9.75683 17.3869 7.25104 15.3614 4.59786 15.3614H3.27128V27.1768Z" fill="black"/>
</svg>
