<svg width="48" height="8" viewBox="0 0 48 8" fill="none" xmlns="http://www.w3.org/2000/svg">
<path d="M1.17919 5.06329L0.736996 7.08877H0L1.32659 0.337158H2.06359L3.39017 7.08877H2.65318L2.21099 5.06329H1.17919ZM2.35838 4.38813L2.06359 2.70022C1.91619 2.19385 1.91618 1.68748 1.76879 1.18111C1.76879 1.68748 1.62139 2.36264 1.47399 2.70022L1.17919 4.38813H2.35838Z" fill="black"/>
<path d="M5.1582 0.338957C5.453 0.338957 5.74779 0.170166 6.18999 0.170166C6.77959 0.170166 7.22179 0.338958 7.51658 0.676539C7.81138 1.01412 7.95878 1.52049 7.95878 2.02686C7.95878 2.70202 7.81138 3.03961 7.66398 3.37719C7.36918 3.88356 6.77959 4.05235 6.18999 4.05235C6.04259 4.05235 6.0426 4.05235 5.8952 4.05235V6.92178H5.1582V0.338957ZM5.8952 3.71477C6.0426 3.71477 6.04259 3.71477 6.18999 3.71477C6.77959 3.71477 7.36919 3.20839 7.36919 2.19565C7.36919 1.52049 7.07438 0.84533 6.33739 0.84533C6.18999 0.84533 6.0426 0.84533 5.8952 0.84533V3.71477Z" fill="black"/>
<path d="M11.7909 7.08908L11.2014 5.4012C11.054 5.06363 10.9065 4.72605 10.7591 4.21969C10.6117 4.72605 10.4644 5.06363 10.4644 5.4012L10.0222 7.08908H9.28516L10.4644 3.54454L9.28516 0.168785H10.0222L10.6118 1.68788C10.7592 2.02545 10.7592 2.36302 10.9066 2.7006C11.054 2.19424 11.2014 1.85666 11.2014 1.51909L11.6436 0H12.3805L11.2014 3.37575L12.3805 6.92029H11.7909V7.08908Z" fill="black"/>
<path d="M14.7399 0.337158V2.70022C14.7399 3.88175 14.7399 4.72571 14.5925 5.90724C14.7399 5.23208 15.1821 4.21933 15.3295 3.54417L16.3612 0.337158H16.9508V7.08877H16.3612V4.72571C16.3612 3.20659 16.3612 2.36264 16.3612 1.51869C16.2138 2.36264 15.919 3.0378 15.6242 3.88176L14.4451 7.08877H13.8555V0.337158H14.7399Z" fill="black"/>
<path d="M19.7505 1.01232H18.7188V0.337158H21.5193V1.01232H20.4875V7.08877H19.7505V1.01232Z" fill="black"/>
<path d="M25.3526 3.88176H23.8787V6.41361H25.6474V7.08877H23.2891V0.337158H25.5V1.01232H23.8787V3.20659H25.3526V3.88176V3.88176Z" fill="black"/>
<path d="M28.0047 0.337158V3.37539H28.1521L29.4787 0.337158H30.2157L28.7417 3.54417C29.4787 3.71296 29.7735 4.38813 29.9209 5.23208C30.0683 5.90724 30.0683 6.5824 30.3631 7.08877H29.6261C29.4787 6.5824 29.3313 5.90724 29.3313 5.40087C29.1839 4.55692 29.0365 3.88176 28.2995 3.88176H28.1521V7.08877H27.5625V0.337158H28.0047Z" fill="black"/>
<path d="M32.5738 1.01232H31.542V0.337158H34.3426V1.01232H33.3108V7.08877H32.5738V1.01232Z" fill="black"/>
<path d="M36.4069 0.337158L37.1439 3.2066C37.2913 3.71297 37.2913 4.05055 37.4387 4.38813C37.4387 4.05055 37.5861 3.54418 37.7335 3.2066L38.3231 0.505949H39.0601L38.3231 3.54418C38.1757 4.21934 37.8809 5.56966 37.4387 6.41361C37.1439 6.91999 36.7017 7.42636 36.2595 7.42636C36.1121 7.42636 35.9647 7.42636 35.9647 7.42636V6.7512H36.1121C36.5543 6.7512 36.9965 5.90724 36.9965 5.40087C36.9965 5.23208 36.9965 5.23208 36.9965 5.06329L35.6699 0.505949H36.4069V0.337158Z" fill="black"/>
<path d="M40.3877 0.338957C40.6825 0.338957 40.9773 0.170166 41.4195 0.170166C42.0091 0.170166 42.4513 0.338958 42.7461 0.676539C43.0409 1.01412 43.1883 1.52049 43.1883 2.02686C43.1883 2.70202 43.0409 3.03961 42.8935 3.37719C42.5987 3.88356 42.0091 4.05235 41.4195 4.05235C41.2721 4.05235 41.2721 4.05235 41.1247 4.05235V6.92178H40.3877V0.338957ZM41.1247 3.71477C41.2721 3.71477 41.2721 3.71477 41.4195 3.71477C42.0091 3.71477 42.5987 3.20839 42.5987 2.19565C42.5987 1.52049 42.3039 0.84533 41.5669 0.84533C41.4195 0.84533 41.2721 0.84533 41.1247 0.84533V3.71477Z" fill="black"/>
<path d="M45.104 5.06329L44.6618 7.08877H43.9248L45.2514 0.337158H45.9884L47.315 7.08877H46.578L46.1358 5.06329H45.104ZM46.2832 4.38813L45.9884 2.70022C45.841 2.19385 45.841 1.68748 45.6936 1.18111C45.6936 1.68748 45.5462 2.36264 45.3988 2.70022L45.104 4.38813H46.2832Z" fill="black"/>
</svg>
