<svg width="82" height="9" viewBox="0 0 82 9" fill="none" xmlns="http://www.w3.org/2000/svg">
<path d="M3.32908 0.337158V1.01232H1.7077V7.08877H0.970703V0.337158H3.32908Z" fill="black"/>
<path d="M4.9502 0.338957C5.24499 0.338957 5.53978 0.170166 5.98198 0.170166C6.57157 0.170166 7.01378 0.338958 7.30857 0.676539C7.60337 1.01412 7.75075 1.52049 7.75075 2.02686C7.75075 2.70202 7.60335 3.03961 7.45596 3.37719C7.16116 3.88356 6.57157 4.05235 5.98198 4.05235C5.83458 4.05235 5.83458 4.05235 5.68719 4.05235V6.92178H4.9502V0.338957ZM5.68719 3.71477C5.83458 3.71477 5.83458 3.71477 5.98198 3.71477C6.57157 3.71477 7.16117 3.20839 7.16117 2.19565C7.16117 1.52049 6.86637 0.84533 6.12938 0.84533C5.98199 0.84533 5.83458 0.84533 5.68719 0.84533V3.71477Z" fill="black"/>
<path d="M9.66753 5.06329L9.22533 7.08877H8.63574L9.96232 0.337158H10.6993L12.0259 7.08877H11.2889L10.8467 5.06329H9.66753ZM10.9941 4.38813L10.6993 2.70022C10.5519 2.19385 10.5519 1.68748 10.4045 1.18111C10.4045 1.68748 10.2571 2.36264 10.1097 2.70022L9.81494 4.38813H10.9941Z" fill="black"/>
<path d="M16.8892 0.337158V6.41361H17.3314V8.4391H16.7418V7.08878H14.0886V8.4391H13.499V6.41361H13.9412C14.236 5.73845 14.3834 5.23208 14.3834 4.55692C14.5308 3.71297 14.5308 2.70022 14.5308 1.85627V0.337158H16.8892ZM15.1204 2.02506C15.1204 3.0378 15.1204 3.88176 14.973 4.72571C14.8256 5.40087 14.6782 5.90724 14.5308 6.41361H16.1522V1.01232H15.1204V2.02506Z" fill="black"/>
<path d="M22.0494 3.54454C22.0494 6.07635 21.3123 7.08908 20.2806 7.08908C19.2488 7.08908 18.6592 5.90757 18.6592 3.54454C18.6592 1.3503 19.3962 0 20.428 0C21.4598 0.168788 22.0494 1.51909 22.0494 3.54454ZM19.3962 3.71333C19.3962 5.06363 19.691 6.58271 20.428 6.58271C21.165 6.58271 21.4597 5.06363 21.4597 3.71333C21.4597 2.36303 21.3124 1.01272 20.428 1.01272C19.691 0.843936 19.3962 2.36303 19.3962 3.71333Z" fill="black"/>
<path d="M26.4714 6.92183C26.324 7.09063 26.0292 7.09063 25.587 7.09063C24.4078 7.09063 23.5234 6.07788 23.5234 3.71479C23.5234 1.01413 24.7026 0.170166 25.587 0.170166C25.8818 0.170166 26.1766 0.170167 26.324 0.338958L26.1766 1.01412C26.0292 1.01412 25.8818 0.845335 25.587 0.845335C24.9974 0.845335 24.2604 1.5205 24.2604 3.71479C24.2604 5.74029 24.9974 6.41546 25.7344 6.41546C26.0292 6.41546 26.1766 6.41546 26.324 6.24667L26.4714 6.92183Z" fill="black"/>
<path d="M28.9761 1.01232H27.9443V0.337158H30.7449V1.01232H29.7131V7.08877H28.9761V1.01232V1.01232Z" fill="black"/>
<path d="M32.5146 0.338957C32.8094 0.338957 33.1042 0.170166 33.5464 0.170166C34.136 0.170166 34.5782 0.338958 34.873 0.676539C35.1678 1.01412 35.3152 1.52049 35.3152 2.02686C35.3152 2.70202 35.1678 3.03961 35.0204 3.37719C34.7256 3.88356 34.136 4.05235 33.5464 4.05235C33.399 4.05235 33.399 4.05235 33.2516 4.05235V6.92178H32.5146V0.338957V0.338957ZM33.1043 3.71477C33.2517 3.71477 33.2516 3.71477 33.399 3.71477C33.9886 3.71477 34.5782 3.20839 34.5782 2.19565C34.5782 1.52049 34.2834 0.84533 33.5464 0.84533C33.399 0.84533 33.2517 0.84533 33.1043 0.84533V3.71477Z" fill="black"/>
<path d="M40.0328 3.54454C40.0328 6.07635 39.2958 7.08908 38.264 7.08908C37.2322 7.08908 36.6426 5.90757 36.6426 3.54454C36.6426 1.3503 37.3796 0 38.4114 0C39.4432 0.168788 40.0328 1.51909 40.0328 3.54454ZM37.3796 3.71333C37.3796 5.06363 37.6744 6.58271 38.4114 6.58271C39.1484 6.58271 39.4432 5.06363 39.4432 3.71333C39.4432 2.36303 39.2958 1.01272 38.4114 1.01272C37.6744 0.843936 37.3796 2.36303 37.3796 3.71333Z" fill="black"/>
<path d="M42.5368 0.337158V2.70022C42.5368 3.88175 42.5368 4.72571 42.3894 5.90724C42.5368 5.23208 42.979 4.21933 43.1264 3.54417L44.1582 0.337158H44.7478V7.08877H44.1582V4.72571C44.1582 3.20659 44.1582 2.36264 44.1582 1.51869C44.0108 2.36264 43.716 3.0378 43.4212 3.88176L42.242 7.08877H41.7998V0.337158H42.5368Z" fill="black"/>
<path d="M47.5494 1.01232H46.5176V0.337158H49.3182V1.01232H48.2864V7.08877H47.5494V1.01232V1.01232Z" fill="black"/>
<path d="M53.1495 3.88176H51.6755V6.41361H53.4443V7.08877H51.0859V0.337158H53.2969V1.01232H51.6755V3.20659H53.1495V3.88176Z" fill="black"/>
<path d="M58.0141 0.337158V7.08883H57.2772V1.01232H55.9506V3.37541C55.9506 5.06333 55.9506 6.58246 55.2136 7.08883C55.0662 7.25762 54.9187 7.25762 54.6239 7.25762L54.4766 6.58245C54.624 6.58245 54.7714 6.58245 54.7714 6.41366C55.0662 6.07608 55.2136 5.06333 55.2136 3.37541V0.337158H58.0141Z" fill="black"/>
<path d="M60.6686 0.337158V3.03783C60.816 3.03783 60.9634 3.03783 61.1108 3.03783C62.1426 3.03783 62.8796 3.88179 62.8796 5.06333C62.8796 5.7385 62.7322 6.07608 62.4374 6.58245C62.1426 7.08883 61.553 7.25762 60.816 7.25762C60.3738 7.25762 60.079 7.25762 59.9316 7.25762V0.505951H60.6686V0.337158ZM60.6686 6.41366C60.816 6.41366 60.816 6.41366 60.9634 6.41366C61.7004 6.41366 62.1426 5.7385 62.1426 4.89454C62.1426 4.05058 61.7004 3.5442 60.9634 3.5442C60.816 3.5442 60.6686 3.5442 60.6686 3.5442V6.41366Z" fill="black"/>
<path d="M67.3005 6.92183C67.1531 7.09063 66.8583 7.09063 66.4161 7.09063C65.2369 7.09063 64.3525 6.07788 64.3525 3.71479C64.3525 1.01413 65.5317 0.170166 66.4161 0.170166C66.7109 0.170166 67.0057 0.170167 67.1531 0.338958L67.0057 1.01412C66.8583 1.01412 66.7109 0.845335 66.4161 0.845335C65.8265 0.845335 65.0895 1.5205 65.0895 3.71479C65.0895 5.74029 65.8265 6.41546 66.5635 6.41546C66.8583 6.41546 67.0057 6.41546 67.1531 6.24667L67.3005 6.92183Z" fill="black"/>
<path d="M69.8062 1.01232H68.7744V0.337158H71.575V1.01232H70.5432V7.08877H69.8062V1.01232Z" fill="black"/>
<path d="M73.1963 0.338958C73.4911 0.338958 73.7859 0.170166 74.2281 0.170166C74.8177 0.170166 75.2599 0.33896 75.5546 0.676543C75.8494 1.01413 75.9968 1.35171 75.9968 1.85808C75.9968 2.53325 75.7021 3.03963 75.1125 3.37721C75.8495 3.546 76.2916 4.22117 76.2916 5.06513C76.2916 5.5715 76.1443 6.07788 75.8495 6.41546C75.5547 6.92184 74.9651 7.09063 74.2281 7.09063C73.7859 7.09063 73.4911 7.09063 73.3437 7.09063V0.338958H73.1963ZM73.9333 3.20842H74.2281C74.8177 3.20842 75.2599 2.70204 75.2599 2.02688C75.2599 1.35171 74.9651 0.845335 74.2281 0.845335C74.0807 0.845335 73.9333 0.845335 73.9333 0.845335V3.20842ZM73.9333 6.41546C74.0807 6.41546 74.0807 6.41546 74.2281 6.41546C74.9651 6.41546 75.4073 5.90909 75.4073 5.06513C75.4073 4.05238 74.8177 3.71479 74.2281 3.71479H73.9333V6.41546Z" fill="black"/>
<path d="M81.0083 3.54454C81.0083 6.07635 80.2713 7.08908 79.2395 7.08908C78.2077 7.08908 77.6182 5.90757 77.6182 3.54454C77.6182 1.3503 78.3552 0 79.3869 0C80.4187 0.168788 81.0083 1.51909 81.0083 3.54454ZM78.3552 3.71333C78.3552 5.06363 78.65 6.58271 79.3869 6.58271C80.1239 6.58271 80.4187 5.06363 80.4187 3.71333C80.4187 2.36303 80.2713 1.01272 79.3869 1.01272C78.65 0.843936 78.3552 2.36303 78.3552 3.71333Z" fill="black"/>
</svg>
