<svg width="43" height="8" viewBox="0 0 43 8" fill="none" xmlns="http://www.w3.org/2000/svg">
<path d="M1.2555 0.337158V2.70022C1.2555 3.88175 1.25549 4.72571 1.10809 5.90724C1.25549 5.23208 1.69769 4.21933 1.84509 3.54417L2.87689 0.337158H3.4665V7.08877H2.87689V4.72571C2.87689 3.20659 2.87689 2.36264 2.87689 1.51869C2.72949 2.36264 2.43469 3.0378 2.13989 3.88176L0.960707 7.08877H0.371094V0.337158H1.2555Z" fill="black"/>
<path d="M6.2663 0.337158V3.20659H7.8877V0.337158H8.6247V7.08877H7.8877V3.88176H6.2663V7.08877H5.5293V0.337158H6.2663Z" fill="black"/>
<path d="M10.9821 0.337158L12.3087 3.37541H12.4561V0.337158H13.0457V3.37541H13.1931L14.5197 0.337158H15.2567L13.7827 3.5442C14.5197 3.71299 14.8145 4.55695 14.9619 5.40091C15.1093 6.07608 15.1093 6.58245 15.4041 7.25762H14.6671C14.5197 6.92004 14.3723 6.07608 14.3723 5.5697C14.2249 4.72575 14.0775 4.05058 13.1931 4.05058H13.0457V7.25762H12.4561V4.05058H12.3087C11.5717 4.05058 11.2769 4.72575 11.1295 5.5697C10.9821 6.07608 10.9821 6.75125 10.8347 7.25762H10.2451C10.3925 6.75125 10.5399 6.07608 10.6873 5.40091C10.8347 4.55695 11.1295 3.71299 11.8665 3.5442L10.3925 0.337158H10.9821Z" fill="black"/>
<path d="M19.089 3.88176H17.615V6.41361H19.3838V7.08877H17.0254V0.337158H19.2364V1.01232H17.615V3.20659H19.089V3.88176Z" fill="black"/>
<path d="M21.7419 0.337158V3.20659H23.3633V0.337158H24.1003V7.08877H23.3633V3.88176H21.7419V7.08877H21.0049V0.337158H21.7419Z" fill="black"/>
<path d="M28.2286 3.88176H26.7547V6.41361H28.5234V7.08877H26.165V0.337158H28.376V1.01232H26.7547V3.20659H28.2286V3.88176Z" fill="black"/>
<path d="M30.1445 0.338957C30.4393 0.338957 30.7341 0.170166 31.1763 0.170166C31.7659 0.170166 32.2081 0.338958 32.5029 0.676539C32.7977 1.01412 32.9451 1.52049 32.9451 2.02686C32.9451 2.70202 32.7977 3.03961 32.6503 3.37719C32.3555 3.88356 31.7659 4.05235 31.1763 4.05235C31.0289 4.05235 31.0289 4.05235 30.8815 4.05235V6.92178H30.1445V0.338957V0.338957ZM30.8815 3.71477C31.0289 3.71477 31.0289 3.71477 31.1763 3.71477C31.7659 3.71477 32.3555 3.20839 32.3555 2.19565C32.3555 1.52049 32.0607 0.84533 31.3237 0.84533C31.1763 0.84533 31.0289 0.84533 30.8815 0.84533V3.71477Z" fill="black"/>
<path d="M35.3044 0.337158V2.70022C35.3044 3.88175 35.3044 4.72571 35.157 5.90724C35.3044 5.23208 35.7466 4.21933 35.894 3.54417L36.9258 0.337158H37.5154V7.08877H36.9258V4.72571C36.9258 3.20659 36.9258 2.36264 36.9258 1.51869C36.7784 2.36264 36.4836 3.0378 36.1888 3.88176L35.0096 7.08877H34.7148V0.337158H35.3044Z" fill="black"/>
<path d="M39.2842 7.08883C39.4316 6.92004 39.4316 6.58245 39.4316 6.41366C39.579 5.7385 39.579 4.72575 40.0212 4.21937C40.1686 4.05058 40.3159 3.88179 40.4633 3.88179C39.8738 3.71299 39.4316 3.20662 39.4316 2.19387C39.4316 1.5187 39.7264 1.01233 40.0212 0.674743C40.316 0.337159 40.7581 0.337158 41.2003 0.337158C41.4951 0.337158 41.9373 0.337159 42.2321 0.505951V7.25762H41.4952V4.21937H41.2003C40.9055 4.21937 40.7581 4.21937 40.4633 4.55695C40.1686 5.06333 40.1686 6.07608 40.0212 6.58245C40.0212 6.75124 39.8738 6.92004 39.8738 7.25762H39.2842V7.08883ZM41.6425 0.843535C41.4951 0.843535 41.4951 0.843535 41.3477 0.843535C40.6108 0.843535 40.316 1.34991 40.316 2.19387C40.316 3.03783 40.7582 3.5442 41.4952 3.5442C41.6426 3.5442 41.6425 3.5442 41.7899 3.5442V0.843535H41.6425Z" fill="black"/>
</svg>
