<svg width="672" height="778" viewBox="0 0 672 778" fill="none" xmlns="http://www.w3.org/2000/svg">
<path d="M70.5 538L257.5 624M70.5 538L201 223.5M70.5 538L147.5 695M257.5 624L147.5 695M257.5 624L459 417.5M459 417.5L317 310.725L201 223.5M459 417.5L147.5 695M201 223.5L147.5 695M215.5 206L374.5 74M215.5 206L347.25 306.25L479 406.5M215.5 206L471 316.5M479 406.5L562 348L645 289.5M479 406.5L471 316.5M645 289.5L509.75 181.75L374.5 74M645 289.5L471 316.5M374.5 74L471 316.5M471 435.5V498.25V561M471 435.5L373.25 534.5L275.5 633.5M471 435.5L215.5 538M275.5 633.5V695V756.5M275.5 633.5L215.5 538M275.5 756.5L373.25 658.75L471 561M275.5 756.5L215.5 538M471 561L215.5 538M491.5 424.5L568.25 370.5L645 316.5M491.5 424.5V486.25V548M491.5 424.5L471 195M491.5 548L568.25 491.75L645 435.5M491.5 548L471 195M645 435.5V376V316.5M645 435.5L471 195M645 316.5L471 195" stroke="#7F7F7F"/>
</svg>
