<svg width="25" height="25" viewBox="0 0 25 25" fill="none" xmlns="http://www.w3.org/2000/svg">
<g id="icons8-instagram">
<path id="Shape" fill-rule="evenodd" clip-rule="evenodd" d="M0 6.74674C0 3.02119 3.02119 0 6.74674 0H17.5415C21.2671 0 24.2883 3.02119 24.2883 6.74674V17.5415C24.2883 21.2671 21.2671 24.2883 17.5415 24.2883H6.74674C3.02119 24.2883 0 21.2671 0 17.5415V6.74674ZM21.5896 4.04759C21.5896 3.30275 20.9851 2.69824 20.2402 2.69824C19.4954 2.69824 18.8909 3.30275 18.8909 4.04759C18.8909 4.79243 19.4954 5.39694 20.2402 5.39694C20.9851 5.39694 21.5896 4.79243 21.5896 4.04759ZM12.1443 5.39746C15.8699 5.39746 18.8911 8.41865 18.8911 12.1442C18.8911 15.8698 15.8699 18.8909 12.1443 18.8909C8.41877 18.8909 5.39758 15.8698 5.39758 12.1442C5.39758 8.41865 8.41877 5.39746 12.1443 5.39746ZM8.09619 12.1437C8.09619 9.90807 9.90856 8.0957 12.1442 8.0957C14.3799 8.0957 16.1923 9.90807 16.1923 12.1437C16.1923 14.3794 14.3799 16.1918 12.1442 16.1918C9.90856 16.1918 8.09619 14.3794 8.09619 12.1437Z" fill="white"/>
</g>
</svg>
