<svg width="317" height="50" viewBox="0 0 317 50" fill="none" xmlns="http://www.w3.org/2000/svg">
<path d="M113 0.67532C114.179 0.337737 115.653 0.168945 117.275 0.168945C119.633 0.168945 121.697 0.844111 123.023 2.36323C124.202 3.71356 124.939 5.90785 124.939 8.43972C124.939 11.1404 124.35 12.9971 123.318 14.5162C121.991 16.7105 119.486 17.892 117.275 17.892C116.832 17.892 116.39 17.892 115.948 17.892V30.045H113V0.67532ZM115.948 14.8538C116.243 14.8538 116.685 15.0226 117.127 15.0226C120.075 15.0226 121.991 12.8283 121.991 8.60851C121.991 5.57027 120.96 2.86961 117.569 2.86961C116.832 2.86961 116.243 3.0384 115.948 3.0384V14.8538Z" fill="black"/>
<path d="M161.494 15.8662H155.009V27.0063H162.378V29.8758H152.061V0.337402H161.936V3.20685H155.009V12.9967H161.494V15.8662Z" fill="black"/>
<path d="M188.469 1.85671C189.648 0.843958 191.417 0 193.775 0C197.902 0 200.113 3.03825 200.113 7.08925C200.113 10.2963 198.197 13.1657 195.544 14.1785V14.3473C198.786 15.0225 200.85 17.8919 200.85 21.9429C200.85 27.1755 197.607 30.3825 193.038 30.3825C191.269 30.3825 189.353 29.8761 188.026 28.8634L188.763 25.9939C189.795 26.6691 191.122 27.3443 192.89 27.3443C196.133 27.3443 197.902 24.9812 197.902 21.7741C197.902 17.8919 195.396 15.6976 192.006 15.6976H191.269V12.997H191.859C194.512 12.997 197.165 10.6339 197.165 7.42683C197.165 4.55738 195.691 2.70067 193.185 2.70067C191.859 2.70067 190.385 3.37583 189.353 4.21979L188.469 1.85671Z" fill="black"/>
<path d="M237.403 15.8662H230.918V27.0063H238.288V29.8758H227.97V0.337402H237.845V3.20685H230.918V12.9967H237.403V15.8662Z" fill="black"/>
<path d="M265.41 0.676538C266.589 0.338957 267.916 0.170166 269.685 0.170166C272.043 0.170166 274.107 0.845329 275.433 2.36445C276.612 3.71477 277.349 5.90905 277.349 8.44091C277.349 11.1416 276.76 12.9983 275.728 14.5174C274.401 16.7117 271.896 17.8932 269.685 17.8932C269.243 17.8932 268.8 17.8932 268.358 17.8932V30.0461H265.41V0.676538ZM268.211 14.855C268.506 14.855 268.948 15.0237 269.39 15.0237C272.338 15.0237 274.254 12.8295 274.254 8.6097C274.254 5.57147 273.222 2.87082 269.832 2.87082C269.095 2.87082 268.506 3.03961 268.211 3.03961V14.855Z" fill="black"/>
<path d="M304.471 0.676541C305.65 0.338958 307.124 0.170166 308.745 0.170166C311.104 0.170166 313.02 0.676541 314.494 2.19567C315.673 3.37721 316.115 5.06512 316.115 7.25942C316.115 10.2977 314.641 12.6608 312.135 13.8423V14.0111C315.083 14.855 317 17.7245 317 21.6067C317 24.1386 316.263 25.9953 315.231 27.5144C313.757 29.3711 311.398 30.2151 308.45 30.2151C306.534 30.2151 305.355 30.0463 304.618 29.8775V0.676541H304.471ZM307.271 12.8295H308.598C310.956 12.8295 313.02 10.804 313.02 7.597C313.02 4.89633 311.841 2.70204 308.745 2.70204C308.008 2.70204 307.566 2.87083 307.124 2.87083V12.8295H307.271ZM307.271 27.1768C307.566 27.3456 308.156 27.3456 308.745 27.3456C311.841 27.3456 313.757 25.3201 313.757 21.4379C313.757 17.3869 311.251 15.3614 308.598 15.3614H307.271V27.1768Z" fill="black"/>
<path d="M114.476 44.3907L114.034 46.4162H113.297L114.623 39.6646H115.36L116.687 46.4162H115.95L115.508 44.3907H114.476ZM115.655 43.7155L115.36 42.0276C115.213 41.5212 115.213 41.0149 115.066 40.5085C115.066 41.0149 114.918 41.69 114.771 42.0276L114.476 43.7155H115.655Z" fill="black"/>
<path d="M118.455 39.6663C118.75 39.6663 119.045 39.4976 119.487 39.4976C120.076 39.4976 120.519 39.6664 120.813 40.0039C121.108 40.3415 121.256 40.8479 121.256 41.3543C121.256 42.0294 121.108 42.367 120.961 42.7046C120.666 43.2109 120.076 43.3797 119.487 43.3797C119.339 43.3797 119.339 43.3797 119.192 43.3797V46.2492H118.455V39.6663ZM119.192 43.0422C119.339 43.0422 119.339 43.0422 119.487 43.0422C120.076 43.0422 120.666 42.5358 120.666 41.523C120.666 40.8479 120.371 40.1727 119.634 40.1727C119.487 40.1727 119.339 40.1727 119.192 40.1727V43.0422Z" fill="black"/>
<path d="M125.088 46.4165L124.498 44.7286C124.351 44.391 124.203 44.0534 124.056 43.5471C123.909 44.0534 123.761 44.391 123.761 44.7286L123.319 46.4165H122.582L123.761 42.8719L122.582 39.4962H123.319L123.909 41.0153C124.056 41.3528 124.056 41.6904 124.203 42.028C124.351 41.5216 124.498 41.1841 124.498 40.8465L124.94 39.3274H125.677L124.498 42.7031L125.677 46.2477H125.088V46.4165Z" fill="black"/>
<path d="M128.037 39.6646V42.0276C128.037 43.2091 128.037 44.0531 127.889 45.2346C128.037 44.5595 128.479 43.5467 128.626 42.8716L129.658 39.6646H130.248V46.4162H129.658V44.0531C129.658 42.534 129.658 41.69 129.658 40.8461C129.511 41.69 129.216 42.3652 128.921 43.2091L127.742 46.4162H127.152V39.6646H128.037Z" fill="black"/>
<path d="M133.047 40.3397H132.016V39.6646H134.816V40.3397H133.784V46.4162H133.047V40.3397Z" fill="black"/>
<path d="M138.65 43.2091H137.176V45.741H138.944V46.4162H136.586V39.6646H138.797V40.3397H137.176V42.534H138.65V43.2091Z" fill="black"/>
<path d="M141.302 39.6646V42.7028H141.449L142.776 39.6646H143.513L142.039 42.8716C142.776 43.0404 143.07 43.7155 143.218 44.5595C143.365 45.2346 143.365 45.9098 143.66 46.4162H142.923C142.776 45.9098 142.628 45.2346 142.628 44.7283C142.481 43.8843 142.333 43.2091 141.596 43.2091H141.449V46.4162H140.859V39.6646H141.302Z" fill="black"/>
<path d="M145.871 40.3397H144.839V39.6646H147.639V40.3397H146.608V46.4162H145.871V40.3397Z" fill="black"/>
<path d="M149.704 39.6646L150.441 42.534C150.588 43.0404 150.588 43.3779 150.736 43.7155C150.736 43.3779 150.883 42.8716 151.03 42.534L151.62 39.8333H152.357L151.62 42.8716C151.473 43.5467 151.178 44.8971 150.736 45.741C150.441 46.2474 149.999 46.7537 149.556 46.7537C149.409 46.7537 149.262 46.7537 149.262 46.7537V46.0786H149.409C149.851 46.0786 150.293 45.2346 150.293 44.7283C150.293 44.5595 150.293 44.5595 150.293 44.3907L148.967 39.8333H149.704V39.6646Z" fill="black"/>
<path d="M153.685 39.6663C153.979 39.6663 154.274 39.4976 154.716 39.4976C155.306 39.4976 155.748 39.6664 156.043 40.0039C156.338 40.3415 156.485 40.8479 156.485 41.3543C156.485 42.0294 156.338 42.367 156.19 42.7046C155.896 43.2109 155.306 43.3797 154.716 43.3797C154.569 43.3797 154.569 43.3797 154.422 43.3797V46.2492H153.685V39.6663ZM154.422 43.0422C154.569 43.0422 154.569 43.0422 154.716 43.0422C155.306 43.0422 155.896 42.5358 155.896 41.523C155.896 40.8479 155.601 40.1727 154.864 40.1727C154.716 40.1727 154.569 40.1727 154.422 40.1727V43.0422Z" fill="black"/>
<path d="M158.401 44.3907L157.959 46.4162H157.222L158.548 39.6646H159.285L160.612 46.4162H159.875L159.433 44.3907H158.401ZM159.58 43.7155L159.285 42.0276C159.138 41.5212 159.138 41.0149 158.99 40.5085C158.99 41.0149 158.843 41.69 158.696 42.0276L158.401 43.7155H159.58Z" fill="black"/>
<path d="M179.626 39.6646V40.3397H178.005V46.4162H177.268V39.6646H179.626Z" fill="black"/>
<path d="M181.247 39.6663C181.542 39.6663 181.837 39.4976 182.279 39.4976C182.868 39.4976 183.311 39.6664 183.605 40.0039C183.9 40.3415 184.048 40.8479 184.048 41.3543C184.048 42.0294 183.9 42.367 183.753 42.7046C183.458 43.2109 182.868 43.3797 182.279 43.3797C182.131 43.3797 182.131 43.3797 181.984 43.3797V46.2492H181.247V39.6663ZM181.984 43.0422C182.131 43.0422 182.131 43.0422 182.279 43.0422C182.868 43.0422 183.458 42.5358 183.458 41.523C183.458 40.8479 183.163 40.1727 182.426 40.1727C182.279 40.1727 182.131 40.1727 181.984 40.1727V43.0422Z" fill="black"/>
<path d="M185.964 44.3907L185.522 46.4162H184.933L186.259 39.6646H186.996L188.323 46.4162H187.586L187.144 44.3907H185.964ZM187.291 43.7155L186.996 42.0276C186.849 41.5212 186.849 41.0149 186.701 40.5085C186.701 41.0149 186.554 41.69 186.407 42.0276L186.112 43.7155H187.291Z" fill="black"/>
<path d="M193.186 39.6646V45.741H193.628V47.7665H193.039V46.4162H190.385V47.7665H189.796V45.741H190.238C190.533 45.0658 190.68 44.5595 190.68 43.8843C190.828 43.0404 190.828 42.0276 190.828 41.1837V39.6646H193.186ZM191.417 41.3525C191.417 42.3652 191.417 43.2091 191.27 44.0531C191.122 44.7283 190.975 45.2346 190.828 45.741H192.449V40.3397H191.417V41.3525Z" fill="black"/>
<path d="M198.346 42.8719C198.346 45.4037 197.609 46.4165 196.577 46.4165C195.546 46.4165 194.956 45.235 194.956 42.8719C194.956 40.6777 195.693 39.3274 196.725 39.3274C197.757 39.4962 198.346 40.8465 198.346 42.8719ZM195.693 43.0407C195.693 44.391 195.988 45.9101 196.725 45.9101C197.462 45.9101 197.757 44.391 197.757 43.0407C197.757 41.6904 197.609 40.3401 196.725 40.3401C195.988 40.1713 195.693 41.6904 195.693 43.0407Z" fill="black"/>
<path d="M202.768 46.2492C202.621 46.418 202.326 46.418 201.884 46.418C200.705 46.418 199.82 45.4053 199.82 43.0422C199.82 40.3415 201 39.4976 201.884 39.4976C202.179 39.4976 202.473 39.4976 202.621 39.6664L202.473 40.3415C202.326 40.3415 202.179 40.1727 201.884 40.1727C201.294 40.1727 200.557 40.8479 200.557 43.0422C200.557 45.0677 201.294 45.7429 202.031 45.7429C202.326 45.7429 202.473 45.7429 202.621 45.5741L202.768 46.2492Z" fill="black"/>
<path d="M205.273 40.3397H204.241V39.6646H207.042V40.3397H206.01V46.4162H205.273V40.3397Z" fill="black"/>
<path d="M208.812 39.6663C209.106 39.6663 209.401 39.4976 209.843 39.4976C210.433 39.4976 210.875 39.6664 211.17 40.0039C211.465 40.3415 211.612 40.8479 211.612 41.3543C211.612 42.0294 211.465 42.367 211.317 42.7046C211.022 43.2109 210.433 43.3797 209.843 43.3797C209.696 43.3797 209.696 43.3797 209.549 43.3797V46.2492H208.812V39.6663ZM209.401 43.0422C209.549 43.0422 209.549 43.0422 209.696 43.0422C210.286 43.0422 210.875 42.5358 210.875 41.523C210.875 40.8479 210.58 40.1727 209.843 40.1727C209.696 40.1727 209.549 40.1727 209.401 40.1727V43.0422Z" fill="black"/>
<path d="M216.33 42.8719C216.33 45.4037 215.593 46.4165 214.561 46.4165C213.529 46.4165 212.939 45.235 212.939 42.8719C212.939 40.6777 213.676 39.3274 214.708 39.3274C215.74 39.4962 216.33 40.8465 216.33 42.8719ZM213.676 43.0407C213.676 44.391 213.971 45.9101 214.708 45.9101C215.445 45.9101 215.74 44.391 215.74 43.0407C215.74 41.6904 215.593 40.3401 214.708 40.3401C213.971 40.1713 213.676 41.6904 213.676 43.0407Z" fill="black"/>
<path d="M218.834 39.6646V42.0276C218.834 43.2091 218.834 44.0531 218.686 45.2346C218.834 44.5595 219.276 43.5467 219.423 42.8716L220.455 39.6646H221.045V46.4162H220.455V44.0531C220.455 42.534 220.455 41.69 220.455 40.8461C220.308 41.69 220.013 42.3652 219.718 43.2091L218.539 46.4162H218.097V39.6646H218.834Z" fill="black"/>
<path d="M223.846 40.3397H222.814V39.6646H225.615V40.3397H224.583V46.4162H223.846V40.3397Z" fill="black"/>
<path d="M229.446 43.2091H227.972V45.741H229.741V46.4162H227.383V39.6646H229.594V40.3397H227.972V42.534H229.446V43.2091Z" fill="black"/>
<path d="M234.311 39.6646V46.4162H233.574V40.3397H232.247V42.7028C232.247 44.3907 232.247 45.9099 231.51 46.4162C231.363 46.585 231.216 46.585 230.921 46.585L230.773 45.9098C230.921 45.9098 231.068 45.9098 231.068 45.7411C231.363 45.4035 231.51 44.3907 231.51 42.7028V39.6646H234.311Z" fill="black"/>
<path d="M236.966 39.6646V42.3652C237.113 42.3652 237.26 42.3652 237.408 42.3652C238.44 42.3652 239.177 43.2092 239.177 44.3907C239.177 45.0659 239.029 45.4035 238.734 45.9098C238.44 46.4162 237.85 46.585 237.113 46.585C236.671 46.585 236.376 46.585 236.229 46.585V39.8333H236.966V39.6646ZM236.966 45.7411C237.113 45.7411 237.113 45.7411 237.26 45.7411C237.997 45.7411 238.44 45.0659 238.44 44.2219C238.44 43.378 237.997 42.8716 237.26 42.8716C237.113 42.8716 236.966 42.8716 236.966 42.8716V45.7411Z" fill="black"/>
<path d="M243.597 46.2492C243.45 46.418 243.155 46.418 242.713 46.418C241.534 46.418 240.649 45.4053 240.649 43.0422C240.649 40.3415 241.829 39.4976 242.713 39.4976C243.008 39.4976 243.303 39.4976 243.45 39.6664L243.303 40.3415C243.155 40.3415 243.008 40.1727 242.713 40.1727C242.123 40.1727 241.386 40.8479 241.386 43.0422C241.386 45.0677 242.123 45.7429 242.86 45.7429C243.155 45.7429 243.303 45.7429 243.45 45.5741L243.597 46.2492Z" fill="black"/>
<path d="M246.103 40.3397H245.071V39.6646H247.872V40.3397H246.84V46.4162H246.103V40.3397Z" fill="black"/>
<path d="M249.493 39.6664C249.788 39.6664 250.083 39.4976 250.525 39.4976C251.115 39.4976 251.557 39.6664 251.852 40.0039C252.146 40.3415 252.294 40.6791 252.294 41.1855C252.294 41.8606 251.999 42.367 251.409 42.7046C252.146 42.8734 252.589 43.5486 252.589 44.3925C252.589 44.8989 252.441 45.4053 252.146 45.7429C251.852 46.2492 251.262 46.418 250.525 46.418C250.083 46.418 249.788 46.418 249.641 46.418V39.6664H249.493ZM250.23 42.5358H250.525C251.115 42.5358 251.557 42.0294 251.557 41.3543C251.557 40.6791 251.262 40.1727 250.525 40.1727C250.378 40.1727 250.23 40.1727 250.23 40.1727V42.5358ZM250.23 45.7429C250.378 45.7429 250.378 45.7429 250.525 45.7429C251.262 45.7429 251.704 45.2365 251.704 44.3925C251.704 43.3798 251.115 43.0422 250.525 43.0422H250.23V45.7429Z" fill="black"/>
<path d="M257.305 42.8719C257.305 45.4037 256.568 46.4165 255.536 46.4165C254.505 46.4165 253.915 45.235 253.915 42.8719C253.915 40.6777 254.652 39.3274 255.684 39.3274C256.716 39.4962 257.305 40.8465 257.305 42.8719ZM254.652 43.0407C254.652 44.391 254.947 45.9101 255.684 45.9101C256.421 45.9101 256.716 44.391 256.716 43.0407C256.716 41.6904 256.568 40.3401 255.684 40.3401C254.947 40.1713 254.652 41.6904 254.652 43.0407Z" fill="black"/>
<path d="M274.552 39.6646V42.0276C274.552 43.2091 274.552 44.0531 274.405 45.2346C274.552 44.5595 274.995 43.5467 275.142 42.8716L276.174 39.6646H276.763V46.4162H276.174V44.0531C276.174 42.534 276.174 41.69 276.174 40.8461C276.026 41.69 275.732 42.3652 275.437 43.2091L274.258 46.4162H273.668V39.6646H274.552Z" fill="black"/>
<path d="M279.563 39.6646V42.534H281.185V39.6646H281.922V46.4162H281.185V43.2091H279.563V46.4162H278.826V39.6646H279.563Z" fill="black"/>
<path d="M284.279 39.6646L285.606 42.7028H285.753V39.6646H286.343V42.7028H286.49L287.817 39.6646H288.554L287.08 42.8716C287.817 43.0404 288.111 43.8843 288.259 44.7283C288.406 45.4035 288.406 45.9098 288.701 46.585H287.964C287.817 46.2474 287.669 45.4035 287.669 44.8971C287.522 44.0531 287.374 43.378 286.49 43.378H286.343V46.585H285.753V43.378H285.606C284.869 43.378 284.574 44.0531 284.426 44.8971C284.279 45.4035 284.279 46.0786 284.132 46.585H283.542C283.689 46.0786 283.837 45.4035 283.984 44.7283C284.132 43.8843 284.426 43.0404 285.163 42.8716L283.689 39.6646H284.279Z" fill="black"/>
<path d="M292.386 43.2091H290.912V45.741H292.681V46.4162H290.322V39.6646H292.533V40.3397H290.912V42.534H292.386V43.2091Z" fill="black"/>
<path d="M295.039 39.6646V42.534H296.66V39.6646H297.397V46.4162H296.66V43.2091H295.039V46.4162H294.302V39.6646H295.039Z" fill="black"/>
<path d="M301.526 43.2091H300.052V45.741H301.82V46.4162H299.462V39.6646H301.673V40.3397H300.052V42.534H301.526V43.2091Z" fill="black"/>
<path d="M303.441 39.6663C303.736 39.6663 304.031 39.4976 304.473 39.4976C305.063 39.4976 305.505 39.6664 305.8 40.0039C306.095 40.3415 306.242 40.8479 306.242 41.3543C306.242 42.0294 306.095 42.367 305.947 42.7046C305.652 43.2109 305.063 43.3797 304.473 43.3797C304.326 43.3797 304.326 43.3797 304.178 43.3797V46.2492H303.441V39.6663ZM304.178 43.0422C304.326 43.0422 304.326 43.0422 304.473 43.0422C305.063 43.0422 305.652 42.5358 305.652 41.523C305.652 40.8479 305.358 40.1727 304.621 40.1727C304.473 40.1727 304.326 40.1727 304.178 40.1727V43.0422Z" fill="black"/>
<path d="M308.601 39.6646V42.0276C308.601 43.2091 308.601 44.0531 308.454 45.2346C308.601 44.5595 309.044 43.5467 309.191 42.8716L310.223 39.6646H310.812V46.4162H310.223V44.0531C310.223 42.534 310.223 41.69 310.223 40.8461C310.075 41.69 309.781 42.3652 309.486 43.2091L308.307 46.4162H308.012V39.6646H308.601Z" fill="black"/>
<path d="M312.581 46.4162C312.728 46.2474 312.728 45.9098 312.728 45.7411C312.876 45.0659 312.876 44.0531 313.318 43.5468C313.465 43.378 313.613 43.2092 313.76 43.2092C313.171 43.0404 312.728 42.534 312.728 41.5213C312.728 40.8461 313.023 40.3397 313.318 40.0021C313.613 39.6646 314.055 39.6646 314.497 39.6646C314.792 39.6646 315.234 39.6646 315.529 39.8333V46.585H314.792V43.5468H314.497C314.202 43.5468 314.055 43.5468 313.76 43.8843C313.465 44.3907 313.465 45.4035 313.318 45.9098C313.318 46.0786 313.171 46.2474 313.171 46.585H312.581V46.4162ZM314.939 40.1709C314.792 40.1709 314.792 40.1709 314.645 40.1709C313.908 40.1709 313.613 40.6773 313.613 41.5213C313.613 42.3652 314.055 42.8716 314.792 42.8716C314.939 42.8716 314.939 42.8716 315.087 42.8716V40.1709H314.939Z" fill="black"/>
<path fill-rule="evenodd" clip-rule="evenodd" d="M86.7697 14.3549C86.3193 14.0544 85.2685 13.9041 84.3677 13.9041C84.2176 13.9041 84.0675 13.9041 83.9174 13.9041C82.5663 13.9041 81.6656 14.0544 80.3145 14.2046C80.3145 14.2046 75.6608 15.4069 75.2104 15.4069C74.4598 15.4069 73.7092 15.4069 72.8085 15.2566C72.6583 15.2566 72.5082 15.2566 72.3581 15.2566C71.6075 15.2566 66.5034 16.6091 66.5034 16.6091C65.6027 16.6091 63.6511 16.7594 62.3 17.3605C60.3485 18.1119 59.5979 18.1119 58.8472 18.1119H58.6971V17.9616L58.547 17.5108H58.6971C59.1475 17.3605 59.8981 16.6091 61.2492 16.3085C64.2516 15.5571 68.1547 14.0544 69.5058 13.303C70.4065 12.8521 71.3073 12.251 71.7576 11.6499V11.4996C71.7576 10.7482 71.1571 10.4477 69.806 10.2974C69.0554 10.2974 68.0046 10.4477 67.1039 10.7482L60.6487 12.1007L53.4429 13.6035L47.1378 15.2566L43.6851 15.8577V15.5571V15.2566V15.1063C43.6851 14.5052 43.0846 13.6035 42.4841 13.303C42.1839 13.1527 41.8836 13.1527 41.5834 13.1527C41.2831 13.1527 40.9829 13.1527 40.6827 13.303H40.3824V13.1527V13.0024C40.0822 12.5516 38.4309 11.3493 37.5301 10.4477L37.38 10.2974V10.1471C37.38 9.54599 37.5301 9.09516 37.5301 8.94488C37.5301 8.7946 37.5301 8.64432 37.0798 8.19349C36.7795 7.89293 36.3292 7.89293 36.0289 7.89293C35.7287 7.89293 35.5786 7.89293 35.2783 7.89293H35.1282L32.1258 3.83541L31.0749 3.23429L31.9757 2.4829C31.9757 2.33262 31.9757 2.33262 31.8256 2.18234C31.3752 2.03206 30.9248 1.88178 30.4745 1.88178C30.3243 1.88178 30.1742 1.88178 29.874 1.88178H29.5737V1.73151V1.58123C29.5737 1.43095 29.4236 1.13039 29.2735 0.980112C28.9733 0.829834 28.8231 0.829834 28.673 0.829834C28.3728 0.829834 28.2227 0.829834 28.0725 0.980112L27.0217 2.03206V2.93373L26.8716 3.98569L24.6198 6.08959L23.1186 7.14154L22.2178 8.19349L20.5665 10.1471L19.3655 11.3493L18.0145 12.5516L17.1137 13.303L16.5133 14.2046L13.0605 17.661L12.46 18.8633L9.30747 22.6202C9.30747 22.6202 6.75542 25.4755 6.30506 26.0766C6.30506 26.0766 4.20337 28.3308 4.20337 28.4811C4.05325 28.4811 3.45277 29.2325 3.00241 29.5331C2.55205 29.6833 2.25181 29.8336 1.80145 29.9839C1.35109 29.9839 1.20096 30.1342 0.750603 30.8856C0.150121 31.1861 0 31.3364 0 31.4867C0 31.637 0.150121 31.9375 0.600482 32.3883C0.900723 32.6889 1.20096 32.9895 1.65133 32.9895C2.10169 32.9895 2.70217 32.6889 3.30265 31.4867C4.20338 31.0358 5.55446 29.3828 6.30506 28.3308C6.30506 28.3308 12.1598 22.1694 12.6101 21.418C12.9104 20.9672 14.7118 19.0135 15.0121 18.5627C16.213 17.3605 17.414 16.008 18.9152 14.6555C19.6658 14.0544 22.368 10.8985 22.368 10.8985L23.4188 9.99683L24.6198 8.64432L26.8716 6.39014H27.0217C27.4721 6.39014 27.9224 6.54042 28.2227 6.99126C28.2227 6.99126 28.3728 9.99683 28.5229 10.5979C28.5229 10.5979 27.6222 11.3493 27.4721 11.4996C27.4721 11.4996 27.4721 11.4996 27.6222 11.4996C27.7723 11.4996 28.0725 11.6499 28.3728 11.8002L28.5229 11.9505L28.673 15.2566L28.5229 15.4069C27.7723 16.3085 27.3219 16.9096 26.8716 17.5108C26.2711 18.1119 26.2711 17.9616 26.121 18.5627C26.121 18.713 26.121 19.0135 26.121 19.1638C26.121 19.6147 26.121 19.9152 26.4212 20.2158C26.5713 20.5163 27.1718 20.6666 27.6222 20.6666C27.7723 20.6666 27.9224 20.6666 28.0725 20.6666L28.5229 20.5163V25.6258L27.1718 26.828C27.1718 26.828 27.0217 27.1286 27.0217 27.5794C27.0217 27.88 27.1718 28.1805 27.1718 28.1805L28.2227 28.6314L28.3728 33.7409L27.7723 35.0934C27.4721 35.3939 27.4721 35.8448 27.4721 36.2956C27.4721 36.4459 27.4721 36.5961 27.4721 36.5961C27.9224 37.3475 27.7723 37.047 28.8231 37.1973H29.1234L29.4236 43.3587L28.5229 43.8095L25.9709 42.7576C24.1694 42.0062 23.2687 41.5553 22.0677 41.1045L18.4648 39.9023C18.0145 39.6017 17.5641 39.1509 16.9636 38.8503C16.0629 38.3995 14.7118 38.5498 13.9612 38.0989C12.46 37.1973 11.1089 36.8967 9.60771 36.5961C7.35591 36.1453 5.40434 35.5442 3.90313 34.342C3.45277 34.1917 2.85229 33.8911 2.40193 33.8911C1.80145 33.8911 1.20096 34.1917 1.05084 35.0934C1.05084 35.0934 1.05084 35.2436 1.05084 35.3939C1.05084 35.995 1.35109 36.7464 1.80145 37.047L6.30506 38.3995L10.8087 39.4514C14.5617 40.0526 17.8643 41.4051 21.167 43.0581L22.6682 43.9598C23.2687 44.2604 24.1694 44.2604 24.92 44.4106L26.5713 45.0117L27.7723 45.7631L27.4721 45.9134C26.8716 46.214 25.8207 47.1157 25.0701 47.867C24.7699 48.0173 24.6198 48.0173 24.4696 48.0173C24.4696 48.1676 24.4696 48.1676 24.4696 48.3179C24.4696 48.7687 24.6198 49.0693 25.0701 49.0693C25.0701 49.0693 25.3704 48.7687 25.6706 48.6184C26.121 48.0173 26.5713 47.867 27.0217 48.0173C27.3219 48.0173 27.6222 48.0173 27.7723 48.0173C27.9224 48.0173 27.9224 48.0173 28.0725 48.0173C28.673 48.0173 28.5229 47.4162 29.1234 47.2659L30.7747 46.6648C31.075 46.8151 31.5253 47.1157 31.5253 47.1157C31.5253 47.1157 31.8256 47.1157 32.1258 46.9654C32.426 46.5145 32.5762 45.7631 33.3268 45.6129C33.3268 45.6129 33.627 45.6129 33.7771 45.7631C34.2275 46.3643 34.2275 46.8151 34.5277 46.8151C34.6778 46.8151 34.828 46.8151 34.828 46.8151C35.4284 46.8151 35.5786 46.8151 36.0289 46.3643L37.5301 44.1101L40.0822 42.3067C40.9829 41.7056 42.1839 41.7056 43.0846 41.4051C43.8352 41.1045 44.7359 40.8039 45.6366 40.5034L53.1427 38.7L58.2468 37.1973L63.2007 36.5961C65.6027 35.6945 68.1547 34.9431 70.8569 34.6425C72.8085 34.342 74.6099 33.7409 76.2612 32.8392C77.0118 32.5386 77.162 32.2381 77.162 31.637C77.162 31.1861 77.0118 30.585 76.5615 30.1342C75.8109 28.7817 72.5082 28.6314 72.5082 28.6314L74.9101 27.88C75.8109 27.7297 76.5615 27.4292 77.4622 27.1286C79.5639 26.3772 82.1159 25.7761 82.7164 25.0247C82.8665 24.7241 83.0167 24.4236 83.0167 24.123C82.7164 21.8688 80.3145 21.7186 80.3145 21.7186L84.2176 20.5163C84.8181 20.3661 85.5687 19.9152 86.1692 19.3141C86.4694 19.0135 86.6196 18.713 86.6196 18.2622C86.6196 18.1119 86.6195 17.8113 86.3193 17.3605C86.1692 16.9096 85.1183 16.7594 85.1183 16.7594C86.6195 16.6091 87.8205 15.8577 87.8205 14.8057V14.6555C87.22 14.8057 87.22 14.6555 86.7697 14.3549ZM58.9974 19.9152C59.2976 19.7649 59.5979 19.7649 60.0482 19.6147C60.7988 19.3141 61.6995 19.1638 62.1499 19.0135C64.2516 18.5627 69.5058 17.9616 72.0579 17.661C72.9586 17.5108 72.9586 17.8113 72.9586 17.8113L60.0482 21.418L55.5446 22.6202L52.5422 23.8225L51.3412 23.9727L49.9901 22.3197L49.5398 21.8688L54.9441 20.6666C54.9441 20.6666 54.9441 20.6666 55.0942 20.6666C55.2444 20.6666 55.2444 20.6666 55.5446 20.5163C55.8448 20.5163 56.2952 20.3661 56.7456 20.2158C57.6463 20.0655 58.547 19.9152 58.8472 19.7649C58.8472 19.7649 58.8473 19.7649 58.9974 19.7649C58.6971 19.9152 58.8473 19.9152 58.9974 19.9152ZM60.7988 12.8521C60.7988 12.8521 62.4501 12.4013 63.0506 12.5516C63.3509 12.5516 63.0506 13.0024 63.0506 13.0024C62.1499 14.0544 54.0434 17.0599 53.4429 17.3605C52.2419 17.8113 46.6875 19.4644 46.6875 19.4644L44.7359 16.9096C44.5858 16.7594 55.3945 14.3549 60.7988 12.8521ZM44.1354 24.8744C44.7359 24.4236 45.4865 23.0711 46.3872 23.0711C46.5374 23.0711 46.8376 23.0711 46.9877 23.2213L48.1887 24.2733L50.5906 26.3772L50.1403 26.828L49.5398 26.9783L47.8885 25.9264C46.8376 26.2269 44.886 26.6778 44.1354 26.9783C43.2347 27.4291 41.8836 27.88 41.8836 27.88H41.7335H40.9829L41.133 27.5794L41.2831 27.2789C41.4333 27.2789 43.6851 25.3253 44.1354 24.8744ZM41.7335 18.5627L42.0337 18.2622L43.535 19.9152L40.9829 20.6666L39.6318 20.8169V20.6666L39.4817 20.2158L39.6318 20.0655C40.2323 19.6147 41.2831 19.1638 41.7335 18.5627ZM36.1791 12.1007L36.4793 11.8002L36.6294 11.9505L36.7795 12.1007C37.5301 12.8521 38.581 13.7538 39.0313 14.3549C39.0313 14.3549 34.5277 16.3085 33.3268 16.9096C32.8764 17.2102 32.426 17.2102 32.1258 17.2102C31.9757 17.2102 31.8256 17.2102 31.8256 17.2102H31.5253L31.0749 16.7594C31.0749 16.9096 35.1282 13.303 36.1791 12.1007ZM30.4745 9.99683L30.3243 6.39014L30.6246 6.08959L33.1766 7.89293V8.04321V8.19349L33.0265 8.94488L30.4745 9.99683ZM30.4745 14.3549V11.4996L32.8764 10.5979L34.2275 10.1471V10.2974V10.4477L34.3776 11.1991L31.8256 12.7018L31.2251 13.303L30.9248 13.6035L30.4745 14.3549ZM31.0749 19.9152L31.3752 19.7649C32.5762 19.4644 33.0265 18.8633 34.5277 18.2622C35.5786 17.9616 37.9805 16.4588 39.7819 16.1583L40.3824 16.008L40.2323 16.3085L40.0822 16.6091C39.7819 17.5108 38.581 17.9616 38.1306 18.4124C35.8788 20.3661 33.627 22.0191 31.5253 23.6722L30.9248 24.123L31.0749 19.9152ZM30.9248 28.4811V28.1805L31.2251 28.0303C31.9757 27.7297 32.7263 26.9783 33.627 26.3772C34.9781 25.4755 36.6294 24.5739 38.4309 23.5219L39.9321 23.0711C39.9321 23.0711 41.133 22.7705 41.4333 23.0711C41.7335 23.3716 41.2831 23.6722 41.2831 23.6722L40.6827 24.2733L38.8812 25.7761L31.2251 32.0878L30.9248 32.3883V28.4811ZM36.4793 38.3995C35.8788 38.8503 35.2783 39.4514 34.6778 40.0526C33.7771 41.1045 32.426 42.0062 31.5253 42.0062H31.0749V36.5961V36.2956L33.1766 35.2436C36.0289 33.29 37.2299 32.5386 40.9829 30.4347L43.535 29.3828C43.6851 29.3828 43.9853 29.3828 44.2856 29.2325C44.5858 29.2325 44.7359 29.2325 45.0362 29.3828C45.0362 29.3828 45.0362 29.3828 45.1863 29.3828C45.3364 29.3828 45.3364 29.5331 45.3364 29.6833C45.3364 29.8336 45.3364 29.8336 45.1863 29.9839C42.334 32.9895 39.6318 35.6945 36.4793 38.3995ZM61.3993 34.342L59.5979 34.9431H57.9465L50.5906 36.7464L47.1378 37.6481L43.2347 39.0006V38.8503L42.9345 38.3995L43.0846 38.2492C44.4357 37.4978 45.3364 36.5961 46.9877 35.995C47.4381 35.995 49.0894 35.6945 49.6899 35.5442C51.1911 35.2436 52.6923 34.6425 54.3436 34.1917C55.8448 33.8911 57.0458 33.5906 58.6971 33.29C60.1983 33.1397 65.7528 32.2381 68.1547 31.9375C68.9053 31.7872 69.0554 32.0878 69.0554 32.0878L61.3993 34.342ZM59.5979 29.9839C58.3969 30.2844 56.2952 30.8856 56.1451 30.8856L53.2928 31.7872C51.9417 32.2381 50.7407 32.5386 49.6899 32.5386C49.5398 32.5386 49.2395 32.5386 49.0894 32.5386L48.3388 32.3883L48.6391 32.0878L48.9393 31.7872C50.1403 30.585 51.6415 30.2844 54.3436 29.9839L56.1451 29.3828L63.501 27.5794C63.9514 27.2789 69.9562 25.6258 72.5082 25.0247C73.4089 24.8744 73.4089 25.0247 73.4089 25.0247C73.4089 25.0247 63.0506 29.0822 59.5979 29.9839ZM73.1087 22.0191C72.5082 22.1694 72.0579 22.3197 72.0579 22.3197L70.1063 23.0711L65.1523 23.9727C64.5518 24.2733 63.9513 24.7241 63.0506 24.8744L58.3969 25.7761V25.6258L58.2468 25.175L59.748 24.123C61.3993 23.6722 63.0506 23.3716 64.702 22.7705L67.7044 21.7186L70.2564 21.418L71.6075 20.9672L74.0094 20.5163L74.4598 19.9152C74.9101 19.6147 75.5106 19.6147 75.961 19.6147C76.4114 19.6147 78.3629 19.0135 78.6632 19.1638C78.8133 19.1638 80.3145 18.8633 80.3145 19.1638C80.0142 20.0655 73.1087 22.0191 73.1087 22.0191Z" fill="black"/>
</svg>
