<svg width="26" height="26" viewBox="0 0 26 26" fill="none" xmlns="http://www.w3.org/2000/svg">
<path fill-rule="evenodd" clip-rule="evenodd" d="M18.5801 16.7452L25.0633 23.2284C25.5677 23.7328 25.5693 24.5489 25.0591 25.0591C24.5524 25.5658 23.7236 25.5585 23.2284 25.0633L16.7452 18.5801C12.6732 21.7492 6.78304 21.4623 3.04018 17.7194C-1.01339 13.6659 -1.01339 7.09375 3.04018 3.04018C7.09375 -1.01339 13.6659 -1.01339 17.7195 3.04018C21.4623 6.78304 21.7492 12.6732 18.5801 16.7452ZM15.8845 15.8845C18.9247 12.8444 18.9247 7.91526 15.8845 4.87509C12.8444 1.83491 7.91526 1.83491 4.87509 4.87509C1.83491 7.91526 1.83491 12.8444 4.87509 15.8845C7.91526 18.9247 12.8444 18.9247 15.8845 15.8845Z" fill="white"/>
</svg>
