<svg width="72" height="72" viewBox="0 0 72 72" fill="none" xmlns="http://www.w3.org/2000/svg">
<path fill-rule="evenodd" clip-rule="evenodd" d="M0 19.8023C0 8.86747 8.86747 0 19.8023 0H51.486C62.4208 0 71.2883 8.86747 71.2883 19.8023V51.486C71.2883 62.4208 62.4208 71.2883 51.486 71.2883H19.8023C8.86747 71.2883 0 62.4208 0 51.486V19.8023ZM63.3673 11.8799C63.3673 9.69372 61.593 7.91943 59.4069 7.91943C57.2207 7.91943 55.4464 9.69372 55.4464 11.8799C55.4464 14.0661 57.2207 15.8404 59.4069 15.8404C61.593 15.8404 63.3673 14.0661 63.3673 11.8799ZM35.6447 15.8418C46.5795 15.8418 55.447 24.7093 55.447 35.6441C55.447 46.5789 46.5795 55.4464 35.6447 55.4464C24.7099 55.4464 15.8424 46.5789 15.8424 35.6441C15.8424 24.7093 24.7099 15.8418 35.6447 15.8418ZM23.7631 35.6431C23.7631 29.0812 29.0825 23.7617 35.6444 23.7617C42.2063 23.7617 47.5258 29.0812 47.5258 35.6431C47.5258 42.205 42.2063 47.5245 35.6444 47.5245C29.0825 47.5245 23.7631 42.205 23.7631 35.6431Z" fill="white"/>
</svg>
