<svg width="71" height="71" viewBox="0 0 71 71" fill="none" xmlns="http://www.w3.org/2000/svg">
<path d="M35.5 0C55.1068 0 71 15.8932 71 35.5C71 55.1068 55.1068 71 35.5 71C15.8932 71 0 55.1068 0 35.5C0 15.8932 15.8932 0 35.5 0ZM47.746 49.9701C48.3988 47.9667 51.458 28.0002 51.8362 24.0659C51.9504 22.8743 51.5738 22.0825 50.836 21.7291C49.9439 21.3 48.6227 21.5145 47.09 22.0671C44.9878 22.825 18.1127 34.2359 16.56 34.8965C15.0875 35.5216 13.6953 36.2038 13.6953 37.1917C13.6953 37.8862 14.1074 38.2767 15.2434 38.6827C16.4257 39.104 19.4031 40.007 21.1611 40.4916C22.8543 40.9593 24.7821 40.5533 25.8625 39.8819C27.0078 39.1704 40.2246 30.3263 41.1738 29.5514C42.1215 28.7766 42.8778 29.7691 42.103 30.5454C41.3282 31.3203 32.2556 40.1258 31.0594 41.3452C29.607 42.8253 30.638 44.3596 31.612 44.9739C32.7248 45.6746 40.7278 51.0428 41.9332 51.9041C43.1387 52.7653 44.3611 53.1558 45.4801 53.1558C46.5992 53.1558 47.1888 51.6818 47.746 49.9701Z" fill="white"/>
</svg>
