<svg width="71" height="71" viewBox="0 0 71 71" fill="none" xmlns="http://www.w3.org/2000/svg">
<path d="M62.5476 0H8.45238C3.78667 0 0 3.78667 0 8.45238V62.5476C0 67.2133 3.78667 71 8.45238 71H62.5476C67.2133 71 71 67.2133 71 62.5476V8.45238C71 3.78667 67.2133 0 62.5476 0ZM57.0029 49.0238L50.6974 49.0069C50.6974 49.0069 50.5621 49.0238 50.3424 49.0238C49.8352 49.0238 48.7871 48.8886 47.5531 48.0433C45.3386 46.505 43.2255 42.6845 41.5519 42.6845C41.4336 42.6845 41.3321 42.7014 41.2307 42.7352C39.7769 43.1917 39.3374 44.6455 39.3374 46.4205C39.3374 47.046 38.8979 47.3333 37.7145 47.3333H34.4519C30.8005 47.3333 27.2674 47.2488 23.2948 42.9043C17.4457 36.4974 11.9686 25.1036 11.9686 25.1036C11.9686 25.1036 11.6643 24.4443 11.9855 24.0555C12.2898 23.7005 12.9998 23.6667 13.2702 23.6667C13.3379 23.6667 13.3717 23.6667 13.3717 23.6667H20.1336C20.1336 23.6667 20.759 23.785 21.2155 24.1231C21.6043 24.4105 21.8071 24.9345 21.8071 24.9345C21.8071 24.9345 22.9567 27.166 24.3936 29.6848C26.811 33.8433 28.1126 35.2295 29.0424 35.2295C29.1945 35.2295 29.3467 35.1957 29.4988 35.1112C30.885 34.3505 30.4793 28.1971 30.4793 28.1971C30.4793 28.1971 30.4962 25.9657 29.7693 24.9852C29.2114 24.2076 28.1464 23.9879 27.6731 23.9202C27.3012 23.8695 27.9098 22.9905 28.7212 22.5848C29.7693 22.0776 31.5105 21.9762 33.6067 21.9762H34.621C36.5988 22.01 36.6495 22.2129 37.4271 22.3988C39.76 22.9567 38.9655 25.1374 38.9655 30.361C38.9655 32.0345 38.6612 34.3843 39.8614 35.1788C39.946 35.2295 40.0643 35.2633 40.2164 35.2633C40.994 35.2633 42.6676 34.266 45.3386 29.7524C46.8262 27.1829 47.9757 24.6302 47.9757 24.6302C47.9757 24.6302 48.2293 24.1738 48.6181 23.9371C48.99 23.7174 48.99 23.7174 49.4802 23.7174H49.531C50.0719 23.7174 55.4476 23.6667 56.631 23.6667H56.7662C57.8988 23.6667 58.93 23.6836 59.116 24.3767C59.3864 25.4248 58.2876 27.3012 55.3969 31.1893C50.6298 37.5624 50.0888 37.089 54.0445 40.7743C57.8312 44.2905 58.6088 45.9979 58.744 46.2176C60.3162 48.821 57.0029 49.0238 57.0029 49.0238Z" fill="white"/>
</svg>
