{
    "asset" : {
        "generator" : "Khronos glTF Blender I/O v1.6.16",
        "version" : "2.0"
    },
    "scene" : 0,
    "scenes" : [
        {
            "name" : "Scene",
            "nodes" : [
                0
            ]
        }
    ],
    "nodes" : [
        {
            "mesh" : 0,
            "name" : "Plane"
        }
    ],
    "meshes" : [
        {
            "name" : "Plane",
            "primitives" : [
                {
                    "attributes" : {
                        "POSITION" : 0,
                        "NORMAL" : 1,
                        "TEXCOORD_0" : 2
                    },
                    "indices" : 3
                }
            ]
        }
    ],
    "accessors" : [
        {
            "bufferView" : 0,
            "componentType" : 5126,
            "count" : 27,
            "max" : [
                1.5085651874542236,
                1.8774794340133667,
                1.0654505491256714
            ],
            "min" : [
                -1.0654505491256714,
                0,
                -1.2146596908569336
            ],
            "type" : "VEC3"
        },
        {
            "bufferView" : 1,
            "componentType" : 5126,
            "count" : 27,
            "type" : "VEC3"
        },
        {
            "bufferView" : 2,
            "componentType" : 5126,
            "count" : 27,
            "type" : "VEC2"
        },
        {
            "bufferView" : 3,
            "componentType" : 5123,
            "count" : 27,
            "type" : "SCALAR"
        }
    ],
    "bufferViews" : [
        {
            "buffer" : 0,
            "byteLength" : 324,
            "byteOffset" : 0
        },
        {
            "buffer" : 0,
            "byteLength" : 324,
            "byteOffset" : 324
        },
        {
            "buffer" : 0,
            "byteLength" : 216,
            "byteOffset" : 648
        },
        {
            "buffer" : 0,
            "byteLength" : 54,
            "byteOffset" : 864
        }
    ],
    "buffers" : [
        {
            "byteLength" : 920,
            "uri" : "data:application/octet-stream;base64,"
        }
    ]
}
